<?xml version="1.0" encoding="us-ascii" standalone="no"?><svg xmlns="http://www.w3.org/2000/svg" xmlns:xlink="http://www.w3.org/1999/xlink" contentStyleType="text/css" height="3188px" preserveAspectRatio="none" style="width:866px;height:3188px;background:#FFFFFF;" version="1.1" viewBox="0 0 866 3188" width="866px" zoomAndPan="magnify"><defs/><g><text fill="#000000" font-family="sans-serif" font-size="14" font-weight="bold" lengthAdjust="spacing" textLength="204" x="324.2" y="23.5352">NomNom Use Case Diagram</text><!--cluster APP--><g id="cluster_APP"><rect fill="#FFFFFF" height="3138" rx="6" ry="6" style="stroke:#999999;stroke-width:1.0;" width="314.4" x="198" y="44.4883"/><text fill="#000000" font-family="sans-serif" font-size="14" font-weight="bold" lengthAdjust="spacing" textLength="101" x="304.7" y="60.0234">NomNom App</text></g><!--cluster AUTH--><g id="cluster_AUTH"><rect fill="#FFFFFF" height="395" rx="6" ry="6" style="stroke:#999999;stroke-width:1.0;" width="235.08" x="237.66" y="1988.4883"/><text fill="#000000" font-family="sans-serif" font-size="14" font-weight="bold" lengthAdjust="spacing" textLength="34" x="338.2" y="2004.0234">Auth</text></g><!--cluster REC--><g id="cluster_REC"><rect fill="#FFFFFF" height="559" rx="6" ry="6" style="stroke:#999999;stroke-width:1.0;" width="203.06" x="253.67" y="577.4883"/><text fill="#000000" font-family="sans-serif" font-size="14" font-weight="bold" lengthAdjust="spacing" textLength="55" x="327.7" y="593.0234">Recipes</text></g><!--cluster FEED--><g id="cluster_FEED"><rect fill="#FFFFFF" height="714" rx="6" ry="6" style="stroke:#999999;stroke-width:1.0;" width="243.28" x="233.56" y="1205.4883"/><text fill="#000000" font-family="sans-serif" font-size="14" font-weight="bold" lengthAdjust="spacing" textLength="33" x="338.7" y="1221.0234">Feed</text></g><!--cluster SOC--><g id="cluster_SOC"><rect fill="#FFFFFF" height="421" rx="6" ry="6" style="stroke:#999999;stroke-width:1.0;" width="266.4" x="222" y="87.4883"/><text fill="#000000" font-family="sans-serif" font-size="14" font-weight="bold" lengthAdjust="spacing" textLength="113" x="298.7" y="103.0234">Social / Friends</text></g><!--cluster GRP--><g id="cluster_GRP"><rect fill="#FFFFFF" height="395" rx="6" ry="6" style="stroke:#999999;stroke-width:1.0;" width="222.45" x="243.97" y="2452.4883"/><text fill="#000000" font-family="sans-serif" font-size="14" font-weight="bold" lengthAdjust="spacing" textLength="51" x="329.695" y="2468.0234">Groups</text></g><!--cluster MOD--><g id="cluster_MOD"><rect fill="#FFFFFF" height="242" rx="6" ry="6" style="stroke:#999999;stroke-width:1.0;" width="197.04" x="256.68" y="2916.4883"/><text fill="#000000" font-family="sans-serif" font-size="14" font-weight="bold" lengthAdjust="spacing" textLength="82" x="314.2" y="2932.0234">Moderation</text></g><g id="elem_UC_Register"><ellipse cx="355.1974" cy="2187.4919" fill="#F7F7F7" rx="51.2674" ry="14.7036" style="stroke:#444444;stroke-width:0.5;"/><text fill="#000000" font-family="sans-serif" font-size="14" lengthAdjust="spacing" textLength="56" x="324.2193" y="2191.505">Register</text></g><g id="elem_UC_Login"><ellipse cx="355.1953" cy="2038.4873" fill="#F7F7F7" rx="38.3553" ry="14.659" style="stroke:#444444;stroke-width:0.5;"/><text fill="#000000" font-family="sans-serif" font-size="14" lengthAdjust="spacing" textLength="38" x="336.1953" y="2041.7783">Login</text></g><g id="elem_UC_Profile"><ellipse cx="355.1963" cy="2344.4855" fill="#F7F7F7" rx="101.5363" ry="22.7073" style="stroke:#444444;stroke-width:0.5;"/><text fill="#000000" font-family="sans-serif" font-size="14" lengthAdjust="spacing" textLength="167" x="271.6963" y="2347.7766">Manage Profile &amp; Picture</text></g><g id="elem_UC_CreateRecipe"><ellipse cx="355.199" cy="1104.4881" fill="#F7F7F7" rx="70.199" ry="16.4398" style="stroke:#444444;stroke-width:0.5;"/><text fill="#000000" font-family="sans-serif" font-size="14" lengthAdjust="spacing" textLength="94" x="306.5115" y="1108.213">Create Recipe</text></g><g id="elem_UC_SearchIngredients"><ellipse cx="355.1951" cy="789.4853" fill="#F7F7F7" rx="84.2351" ry="19.247" style="stroke:#444444;stroke-width:0.5;"/><text fill="#000000" font-family="sans-serif" font-size="14" lengthAdjust="spacing" textLength="128" x="291.1951" y="792.7763">Search Ingredients</text></g><g id="elem_UC_ViewRecipe"><ellipse cx="355.2012" cy="948.4845" fill="#F7F7F7" rx="85.5312" ry="19.5062" style="stroke:#444444;stroke-width:0.5;"/><text fill="#000000" font-family="sans-serif" font-size="14" lengthAdjust="spacing" textLength="131" x="289.7012" y="951.7755">View Recipe Details</text></g><g id="elem_UC_AutoPost"><ellipse cx="355.195" cy="631.4933" fill="#F7F7F7" rx="83.375" ry="19.075" style="stroke:#444444;stroke-width:0.5;"/><text fill="#000000" font-family="sans-serif" font-size="14" lengthAdjust="spacing" textLength="126" x="292.195" y="634.7843">Auto-post to Feed</text></g><g id="elem_UC_ViewFeed"><ellipse cx="355.205" cy="1728.4872" fill="#F7F7F7" rx="60.865" ry="14.7789" style="stroke:#444444;stroke-width:0.5;"/><text fill="#000000" font-family="sans-serif" font-size="14" lengthAdjust="spacing" textLength="69" x="317.705" y="1732.5048">View Feed</text></g><g id="elem_UC_FilterFeed"><ellipse cx="355.2009" cy="1570.4865" fill="#F7F7F7" rx="105.6409" ry="23.5282" style="stroke:#444444;stroke-width:0.5;"/><text fill="#000000" font-family="sans-serif" font-size="14" lengthAdjust="spacing" textLength="176" x="267.2009" y="1573.7775">Filter Feed by Preferences</text></g><g id="elem_UC_ShareToGroup"><ellipse cx="355.2034" cy="1883.487" fill="#F7F7F7" rx="88.1434" ry="20.0287" style="stroke:#444444;stroke-width:0.5;"/><text fill="#000000" font-family="sans-serif" font-size="14" lengthAdjust="spacing" textLength="137" x="286.7034" y="1886.778">Share Post to Group</text></g><g id="elem_UC_Comment"><ellipse cx="355.2048" cy="1408.4912" fill="#F7F7F7" rx="81.6648" ry="18.733" style="stroke:#444444;stroke-width:0.5;"/><text fill="#000000" font-family="sans-serif" font-size="14" lengthAdjust="spacing" textLength="122" x="294.2048" y="1411.7823">Comment on Post</text></g><g id="elem_UC_Like"><ellipse cx="355.2001" cy="1255.4879" fill="#F7F7F7" rx="54.2201" ry="14.7296" style="stroke:#444444;stroke-width:0.5;"/><text fill="#000000" font-family="sans-serif" font-size="14" lengthAdjust="spacing" textLength="60" x="322.2001" y="1259.5055">Like Post</text></g><g id="elem_UC_SendFR"><ellipse cx="355.1988" cy="472.488" fill="#F7F7F7" rx="89.8988" ry="20.3798" style="stroke:#444444;stroke-width:0.5;"/><text fill="#000000" font-family="sans-serif" font-size="14" lengthAdjust="spacing" textLength="141" x="284.6988" y="475.7791">Send Friend Request</text></g><g id="elem_UC_RespondFR"><ellipse cx="355.1989" cy="306.4881" fill="#F7F7F7" rx="117.1989" ry="25.8398" style="stroke:#444444;stroke-width:0.5;"/><text fill="#000000" font-family="sans-serif" font-size="14" lengthAdjust="spacing" textLength="201" x="254.6989" y="309.7791">Accept/Reject Friend Request</text></g><g id="elem_UC_ViewProfiles"><ellipse cx="355.2048" cy="141.4912" fill="#F7F7F7" rx="81.6648" ry="18.733" style="stroke:#444444;stroke-width:0.5;"/><text fill="#000000" font-family="sans-serif" font-size="14" lengthAdjust="spacing" textLength="122" x="294.2048" y="144.7823">View User Profiles</text></g><g id="elem_UC_JoinGroup"><ellipse cx="355.1969" cy="2502.4917" fill="#F7F7F7" rx="62.7669" ry="14.9534" style="stroke:#444444;stroke-width:0.5;"/><text fill="#000000" font-family="sans-serif" font-size="14" lengthAdjust="spacing" textLength="73" x="315.6969" y="2506.5092">Join Group</text></g><g id="elem_UC_LeaveGroup"><ellipse cx="355.2012" cy="2653.4865" fill="#F7F7F7" rx="66.8912" ry="15.7782" style="stroke:#444444;stroke-width:0.5;"/><text fill="#000000" font-family="sans-serif" font-size="14" lengthAdjust="spacing" textLength="85" x="309.7012" y="2657.5041">Leave Group</text></g><g id="elem_UC_ManageGroup"><ellipse cx="355.2047" cy="2810.4932" fill="#F7F7F7" rx="95.2247" ry="21.4449" style="stroke:#444444;stroke-width:0.5;"/><text fill="#000000" font-family="sans-serif" font-size="14" lengthAdjust="spacing" textLength="153" x="278.7047" y="2813.7842">Create/Manage Group</text></g><g id="elem_UC_Moderate"><ellipse cx="355.1982" cy="3123.4919" fill="#F7F7F7" rx="82.5182" ry="18.9036" style="stroke:#444444;stroke-width:0.5;"/><text fill="#000000" font-family="sans-serif" font-size="14" lengthAdjust="spacing" textLength="124" x="293.1982" y="3126.7829">Moderate Content</text></g><g id="elem_UC_ManageUsers"><ellipse cx="355.1977" cy="2968.4918" fill="#F7F7F7" rx="70.9677" ry="16.5935" style="stroke:#444444;stroke-width:0.5;"/><text fill="#000000" font-family="sans-serif" font-size="14" lengthAdjust="spacing" textLength="96" x="305.916" y="2972.1186">Manage Users</text></g><!--entity U--><g id="elem_U"><ellipse cx="52" cy="1540.7483" fill="#F1F1F1" rx="8" ry="8" style="stroke:#181818;stroke-width:0.5;"/><path d="M52,1548.7483 L52,1575.7483 M39,1556.7483 L65,1556.7483 M52,1575.7483 L39,1590.7483 M52,1575.7483 L65,1590.7483 " fill="none" style="stroke:#181818;stroke-width:0.5;"/><text fill="#000000" font-family="sans-serif" font-size="14" lengthAdjust="spacing" textLength="31" x="36.5" y="1605.7834">User</text></g><!--entity GA--><g id="elem_GA"><ellipse cx="52" cy="2780.7483" fill="#F1F1F1" rx="8" ry="8" style="stroke:#181818;stroke-width:0.5;"/><path d="M52,2788.7483 L52,2815.7483 M39,2796.7483 L65,2796.7483 M52,2815.7483 L39,2830.7483 M52,2815.7483 L65,2830.7483 " fill="none" style="stroke:#181818;stroke-width:0.5;"/><text fill="#000000" font-family="sans-serif" font-size="14" lengthAdjust="spacing" textLength="92" x="6" y="2845.7834">Group Admin</text></g><!--entity AD--><g id="elem_AD"><ellipse cx="52" cy="3034.7483" fill="#F1F1F1" rx="8" ry="8" style="stroke:#181818;stroke-width:0.5;"/><path d="M52,3042.7483 L52,3069.7483 M39,3050.7483 L65,3050.7483 M52,3069.7483 L39,3084.7483 M52,3069.7483 L65,3084.7483 " fill="none" style="stroke:#181818;stroke-width:0.5;"/><text fill="#000000" font-family="sans-serif" font-size="14" lengthAdjust="spacing" textLength="45" x="29.5" y="3099.7834">Admin</text></g><g id="elem_GMN58"><path d="M643.9,776.8283 L643.9,781.2683 L437.8,785.2683 L643.9,789.2683 L643.9,802.1388 A0,0 0 0 0 643.9,802.1388 L827.9,802.1388 A0,0 0 0 0 827.9,802.1388 L827.9,786.8283 L817.9,776.8283 L643.9,776.8283 A0,0 0 0 0 643.9,776.8283 " fill="#FEFFDD" style="stroke:#181818;stroke-width:0.5;"/><path d="M817.9,776.8283 L817.9,786.8283 L827.9,786.8283 L817.9,776.8283 " fill="#FEFFDD" style="stroke:#181818;stroke-width:0.5;"/><text fill="#000000" font-family="sans-serif" font-size="13" lengthAdjust="spacing" textLength="163" x="649.9" y="794.3966">Uses Open Food Facts API</text></g><g id="elem_GMN61"><path d="M612.4,1091.8283 L612.4,1106.8183 L420.64,1110.8183 L612.4,1114.8183 L612.4,1117.1388 A0,0 0 0 0 612.4,1117.1388 L859.4,1117.1388 A0,0 0 0 0 859.4,1117.1388 L859.4,1101.8283 L849.4,1091.8283 L612.4,1091.8283 A0,0 0 0 0 612.4,1091.8283 " fill="#FEFFDD" style="stroke:#181818;stroke-width:0.5;"/><path d="M849.4,1091.8283 L849.4,1101.8283 L859.4,1101.8283 L849.4,1091.8283 " fill="#FEFFDD" style="stroke:#181818;stroke-width:0.5;"/><text fill="#000000" font-family="sans-serif" font-size="13" lengthAdjust="spacing" textLength="226" x="618.4" y="1109.3966">Image upload via GridFS/Cloudinary</text></g><g id="elem_GMN64"><path d="M657.9,2174.8283 L657.9,2183.4883 L406.94,2187.4883 L657.9,2191.4883 L657.9,2200.1388 A0,0 0 0 0 657.9,2200.1388 L813.9,2200.1388 A0,0 0 0 0 813.9,2200.1388 L813.9,2184.8283 L803.9,2174.8283 L657.9,2174.8283 A0,0 0 0 0 657.9,2174.8283 " fill="#FEFFDD" style="stroke:#181818;stroke-width:0.5;"/><path d="M803.9,2174.8283 L803.9,2184.8283 L813.9,2184.8283 L803.9,2174.8283 " fill="#FEFFDD" style="stroke:#181818;stroke-width:0.5;"/><text fill="#000000" font-family="sans-serif" font-size="13" lengthAdjust="spacing" textLength="135" x="663.9" y="2192.3966">bcrypt + JWT for auth</text></g><g id="elem_GMN67"><path d="M625.9,1715.8283 L625.9,1728.7083 L413.85,1732.7083 L625.9,1736.7083 L625.9,1741.1388 A0,0 0 0 0 625.9,1741.1388 L845.9,1741.1388 A0,0 0 0 0 845.9,1741.1388 L845.9,1725.8283 L835.9,1715.8283 L625.9,1715.8283 A0,0 0 0 0 625.9,1715.8283 " fill="#FEFFDD" style="stroke:#181818;stroke-width:0.5;"/><path d="M835.9,1715.8283 L835.9,1725.8283 L845.9,1725.8283 L835.9,1715.8283 " fill="#FEFFDD" style="stroke:#181818;stroke-width:0.5;"/><text fill="#000000" font-family="sans-serif" font-size="13" lengthAdjust="spacing" textLength="199" x="631.9" y="1733.3966">Friends + Groups + Preferences</text></g><!--link UC_CreateRecipe to UC_SearchIngredients--><g id="link_UC_CreateRecipe_UC_SearchIngredients"><path d="M420.54,1098.1583 C437.15,1098.1583 450.4,1098.1583 450.4,1098.1583 C450.4,1098.1583 450.4,793.7083 450.4,793.7083 C450.4,793.7083 451.51,793.7083 443.95,793.7083 " fill="none" id="UC_CreateRecipe-to-UC_SearchIngredients" style="stroke:#444444;stroke-width:1.2;stroke-dasharray:7.0,7.0;"/><polygon fill="#444444" points="437.95,793.7083,446.95,797.7083,442.95,793.7083,446.95,789.7083,437.95,793.7083" style="stroke:#444444;stroke-width:1.2;"/><text fill="#000000" font-family="sans-serif" font-size="13" lengthAdjust="spacing" textLength="60" x="451.4" y="968.2066">&#171;include&#187;</text></g><!--link UC_CreateRecipe to UC_ViewRecipe--><g id="link_UC_CreateRecipe_UC_ViewRecipe"><path d="M355.4,1087.7983 C355.4,1058.8683 355.4,1005.5583 355.4,974.4883 " fill="none" id="UC_CreateRecipe-to-UC_ViewRecipe" style="stroke:#444444;stroke-width:1.2;stroke-dasharray:7.0,7.0;"/><polygon fill="#444444" points="355.4,968.4883,351.4,977.4883,355.4,973.4883,359.4,977.4883,355.4,968.4883" style="stroke:#444444;stroke-width:1.2;"/><text fill="#000000" font-family="sans-serif" font-size="13" lengthAdjust="spacing" textLength="60" x="294.4" y="1041.7066">&#171;include&#187;</text></g><!--link UC_CreateRecipe to UC_AutoPost--><g id="link_UC_CreateRecipe_UC_AutoPost"><path d="M425.88,1104.4883 C442.46,1104.4883 455.4,1104.4883 455.4,1104.4883 C455.4,1104.4883 455.4,631.4883 455.4,631.4883 C455.4,631.4883 454.74,631.4883 444.85,631.4883 " fill="none" id="UC_CreateRecipe-to-UC_AutoPost" style="stroke:#444444;stroke-width:1.2;stroke-dasharray:7.0,7.0;"/><polygon fill="#444444" points="438.85,631.4883,447.85,635.4883,443.85,631.4883,447.85,627.4883,438.85,631.4883" style="stroke:#444444;stroke-width:1.2;"/><text fill="#000000" font-family="sans-serif" font-size="13" lengthAdjust="spacing" textLength="60" x="394.4" y="888.0466">&#171;include&#187;</text></g><!--link UC_ViewFeed to UC_FilterFeed--><g id="link_UC_ViewFeed_UC_FilterFeed"><path d="M355.4,1713.3383 C355.4,1685.7683 355.4,1633.1883 355.4,1600.2583 " fill="none" id="UC_ViewFeed-to-UC_FilterFeed" style="stroke:#444444;stroke-width:1.2;stroke-dasharray:7.0,7.0;"/><polygon fill="#444444" points="355.4,1594.2583,351.4,1603.2583,355.4,1599.2583,359.4,1603.2583,355.4,1594.2583" style="stroke:#444444;stroke-width:1.2;"/><text fill="#000000" font-family="sans-serif" font-size="13" lengthAdjust="spacing" textLength="57" x="297.4" y="1667.3666">&#171;extend&#187;</text></g><!--link UC_ViewFeed to UC_ViewRecipe--><g id="link_UC_ViewFeed_UC_ViewRecipe"><path d="M414.12,1724.2683 C441.62,1724.2683 468.4,1724.2683 468.4,1724.2683 C468.4,1724.2683 468.4,948.4883 468.4,948.4883 C468.4,948.4883 462.78,948.4883 447,948.4883 " fill="none" id="UC_ViewFeed-to-UC_ViewRecipe" style="stroke:#444444;stroke-width:1.2;stroke-dasharray:7.0,7.0;"/><polygon fill="#444444" points="441,948.4883,450,952.4883,446,948.4883,450,944.4883,441,948.4883" style="stroke:#444444;stroke-width:1.2;"/><text fill="#000000" font-family="sans-serif" font-size="13" lengthAdjust="spacing" textLength="60" x="407.4" y="1363.3866">&#171;include&#187;</text></g><!--link UC_ShareToGroup to UC_ViewFeed--><g id="link_UC_ShareToGroup_UC_ViewFeed"><path d="M355.4,1863.2283 C355.4,1831.7183 355.4,1777.6783 355.4,1749.6283 " fill="none" id="UC_ShareToGroup-to-UC_ViewFeed" style="stroke:#444444;stroke-width:1.2;stroke-dasharray:7.0,7.0;"/><polygon fill="#444444" points="355.4,1743.6283,351.4,1752.6283,355.4,1748.6283,359.4,1752.6283,355.4,1743.6283" style="stroke:#444444;stroke-width:1.2;"/><text fill="#000000" font-family="sans-serif" font-size="13" lengthAdjust="spacing" textLength="60" x="294.4" y="1816.9966">&#171;include&#187;</text></g><!--link U to UC_Register--><g id="link_U_UC_Register"><path d="M52.4,1609.0883 C52.4,1744.1583 52.4,2187.4883 52.4,2187.4883 C52.4,2187.4883 211.01,2187.4883 297.49,2187.4883 " fill="none" id="U-to-UC_Register" style="stroke:#444444;stroke-width:1.2;"/><polygon fill="#444444" points="303.49,2187.4883,294.49,2183.4883,298.49,2187.4883,294.49,2191.4883,303.49,2187.4883" style="stroke:#444444;stroke-width:1.2;"/></g><!--link U to UC_Login--><g id="link_U_UC_Login"><path d="M57.4,1609.1883 C57.4,1721.3083 57.4,2038.4883 57.4,2038.4883 C57.4,2038.4883 229.99,2038.4883 310.57,2038.4883 " fill="none" id="U-to-UC_Login" style="stroke:#444444;stroke-width:1.2;"/><polygon fill="#444444" points="316.57,2038.4883,307.57,2034.4883,311.57,2038.4883,307.57,2042.4883,316.57,2038.4883" style="stroke:#444444;stroke-width:1.2;"/></g><!--link U to UC_Profile--><g id="link_U_UC_Profile"><path d="M67.66,1603.8283 C116.13,1603.8283 260.4,1603.8283 260.4,1603.8283 C260.4,1603.8283 260.4,2247.4483 260.4,2329.9183 " fill="none" id="U-to-UC_Profile" style="stroke:#444444;stroke-width:1.2;"/><polygon fill="#444444" points="260.4,2335.9183,264.4,2326.9183,260.4,2330.9183,256.4,2326.9183,260.4,2335.9183" style="stroke:#444444;stroke-width:1.2;"/></g><!--link U to UC_CreateRecipe--><g id="link_U_UC_CreateRecipe"><path d="M54.4,1531.9583 C54.4,1420.3083 54.4,1104.4883 54.4,1104.4883 C54.4,1104.4883 189.77,1104.4883 278.67,1104.4883 " fill="none" id="U-to-UC_CreateRecipe" style="stroke:#444444;stroke-width:1.2;"/><polygon fill="#444444" points="284.67,1104.4883,275.67,1100.4883,279.67,1104.4883,275.67,1108.4883,284.67,1104.4883" style="stroke:#444444;stroke-width:1.2;"/></g><!--link U to UC_ViewRecipe--><g id="link_U_UC_ViewRecipe"><path d="M49.4,1532.0483 C49.4,1396.4383 49.4,948.4883 49.4,948.4883 C49.4,948.4883 172.75,948.4883 263.2,948.4883 " fill="none" id="U-to-UC_ViewRecipe" style="stroke:#444444;stroke-width:1.2;"/><polygon fill="#444444" points="269.2,948.4883,260.2,944.4883,264.2,948.4883,260.2,952.4883,269.2,948.4883" style="stroke:#444444;stroke-width:1.2;"/></g><!--link U to UC_ViewFeed--><g id="link_U_UC_ViewFeed"><path d="M62.4,1609.1383 C62.4,1655.9183 62.4,1728.4883 62.4,1728.4883 C62.4,1728.4883 202.36,1728.4883 288.17,1728.4883 " fill="none" id="U-to-UC_ViewFeed" style="stroke:#444444;stroke-width:1.2;"/><polygon fill="#444444" points="294.17,1728.4883,285.17,1724.4883,289.17,1728.4883,285.17,1732.4883,294.17,1728.4883" style="stroke:#444444;stroke-width:1.2;"/></g><!--link U to UC_FilterFeed--><g id="link_U_UC_FilterFeed"><path d="M67.87,1570.4883 C101.44,1570.4883 176.08,1570.4883 243.41,1570.4883 " fill="none" id="U-to-UC_FilterFeed" style="stroke:#444444;stroke-width:1.2;"/><polygon fill="#444444" points="249.41,1570.4883,240.41,1566.4883,244.41,1570.4883,240.41,1574.4883,249.41,1570.4883" style="stroke:#444444;stroke-width:1.2;"/></g><!--link U to UC_ShareToGroup--><g id="link_U_UC_ShareToGroup"><path d="M67.7,1598.9183 C119.3,1598.9183 280.4,1598.9183 280.4,1598.9183 C280.4,1598.9183 280.4,1814.6983 280.4,1866.6783 " fill="none" id="U-to-UC_ShareToGroup" style="stroke:#444444;stroke-width:1.2;"/><polygon fill="#444444" points="280.4,1872.6783,284.4,1863.6783,280.4,1867.6783,276.4,1863.6783,280.4,1872.6783" style="stroke:#444444;stroke-width:1.2;"/></g><!--link U to UC_Comment--><g id="link_U_UC_Comment"><path d="M63.4,1532.0983 C63.4,1484.1883 63.4,1408.4883 63.4,1408.4883 C63.4,1408.4883 180.83,1408.4883 267.14,1408.4883 " fill="none" id="U-to-UC_Comment" style="stroke:#444444;stroke-width:1.2;"/><polygon fill="#444444" points="273.14,1408.4883,264.14,1404.4883,268.14,1408.4883,264.14,1412.4883,273.14,1408.4883" style="stroke:#444444;stroke-width:1.2;"/></g><!--link U to UC_Like--><g id="link_U_UC_Like"><path d="M58.4,1531.8583 C58.4,1447.7483 58.4,1255.4883 58.4,1255.4883 C58.4,1255.4883 209.08,1255.4883 294.76,1255.4883 " fill="none" id="U-to-UC_Like" style="stroke:#444444;stroke-width:1.2;"/><polygon fill="#444444" points="300.76,1255.4883,291.76,1251.4883,295.76,1255.4883,291.76,1259.4883,300.76,1255.4883" style="stroke:#444444;stroke-width:1.2;"/></g><!--link U to UC_SendFR--><g id="link_U_UC_SendFR"><path d="M45.4,1532.0583 C45.4,1337.7183 45.4,472.4883 45.4,472.4883 C45.4,472.4883 167.71,472.4883 259.18,472.4883 " fill="none" id="U-to-UC_SendFR" style="stroke:#444444;stroke-width:1.2;"/><polygon fill="#444444" points="265.18,472.4883,256.18,468.4883,260.18,472.4883,256.18,476.4883,265.18,472.4883" style="stroke:#444444;stroke-width:1.2;"/></g><!--link U to UC_RespondFR--><g id="link_U_UC_RespondFR"><path d="M67.82,1539.5983 C113.34,1539.5983 241.4,1539.5983 241.4,1539.5983 C241.4,1539.5983 241.4,416.1783 241.4,319.1183 " fill="none" id="U-to-UC_RespondFR" style="stroke:#444444;stroke-width:1.2;"/><polygon fill="#444444" points="241.4,313.1183,237.4,322.1183,241.4,318.1183,245.4,322.1183,241.4,313.1183" style="stroke:#444444;stroke-width:1.2;"/></g><!--link U to UC_ViewProfiles--><g id="link_U_UC_ViewProfiles"><path d="M41.4,1531.8983 C41.4,1303.7583 41.4,141.4883 41.4,141.4883 C41.4,141.4883 174.18,141.4883 267.16,141.4883 " fill="none" id="U-to-UC_ViewProfiles" style="stroke:#444444;stroke-width:1.2;"/><polygon fill="#444444" points="273.16,141.4883,264.16,137.4883,268.16,141.4883,264.16,145.4883,273.16,141.4883" style="stroke:#444444;stroke-width:1.2;"/></g><!--link U to UC_JoinGroup--><g id="link_U_UC_JoinGroup"><path d="M46.4,1609.0583 C46.4,1784.9383 46.4,2502.4883 46.4,2502.4883 C46.4,2502.4883 195.62,2502.4883 285.96,2502.4883 " fill="none" id="U-to-UC_JoinGroup" style="stroke:#444444;stroke-width:1.2;"/><polygon fill="#444444" points="291.96,2502.4883,282.96,2498.4883,286.96,2502.4883,282.96,2506.4883,291.96,2502.4883" style="stroke:#444444;stroke-width:1.2;"/></g><!--link U to UC_LeaveGroup--><g id="link_U_UC_LeaveGroup"><path d="M41.4,1609.0283 C41.4,1801.9583 41.4,2653.4883 41.4,2653.4883 C41.4,2653.4883 189.68,2653.4883 281.88,2653.4883 " fill="none" id="U-to-UC_LeaveGroup" style="stroke:#444444;stroke-width:1.2;"/><polygon fill="#444444" points="287.88,2653.4883,278.88,2649.4883,282.88,2653.4883,278.88,2657.4883,287.88,2653.4883" style="stroke:#444444;stroke-width:1.2;"/></g><!--link GA to UC_ManageGroup--><g id="link_GA_UC_ManageGroup"><path d="M98.38,2810.4883 C141.1,2810.4883 199.81,2810.4883 253.58,2810.4883 " fill="none" id="GA-to-UC_ManageGroup" style="stroke:#444444;stroke-width:1.2;"/><polygon fill="#444444" points="259.58,2810.4883,250.58,2806.4883,254.58,2810.4883,250.58,2814.4883,259.58,2810.4883" style="stroke:#444444;stroke-width:1.2;"/></g><!--link AD to UC_Moderate--><g id="link_AD_UC_Moderate"><path d="M52.4,3103.2283 C52.4,3117.2883 52.4,3129.7883 52.4,3129.7883 C52.4,3129.7883 181.11,3129.7883 270.83,3129.7883 " fill="none" id="AD-to-UC_Moderate" style="stroke:#444444;stroke-width:1.2;"/><polygon fill="#444444" points="276.83,3129.7883,267.83,3125.7883,271.83,3129.7883,267.83,3133.7883,276.83,3129.7883" style="stroke:#444444;stroke-width:1.2;"/></g><!--link AD to UC_ManageUsers--><g id="link_AD_UC_ManageUsers"><path d="M52.4,3025.9983 C52.4,2999.2883 52.4,2968.4883 52.4,2968.4883 C52.4,2968.4883 188.3,2968.4883 277.82,2968.4883 " fill="none" id="AD-to-UC_ManageUsers" style="stroke:#444444;stroke-width:1.2;"/><polygon fill="#444444" points="283.82,2968.4883,274.82,2964.4883,278.82,2968.4883,274.82,2972.4883,283.82,2968.4883" style="stroke:#444444;stroke-width:1.2;"/></g><!--link UC_Moderate to UC_Comment--><g id="link_UC_Moderate_UC_Comment"><path d="M437.96,3123.4883 C453.19,3123.4883 464.4,3123.4883 464.4,3123.4883 C464.4,3123.4883 464.4,1408.4883 464.4,1408.4883 C464.4,1408.4883 458.78,1408.4883 443.12,1408.4883 " fill="none" id="UC_Moderate-to-UC_Comment" style="stroke:#444444;stroke-width:1.2;stroke-dasharray:7.0,7.0;"/><polygon fill="#444444" points="437.12,1408.4883,446.12,1412.4883,442.12,1408.4883,446.12,1404.4883,437.12,1408.4883" style="stroke:#444444;stroke-width:1.2;"/><text fill="#000000" font-family="sans-serif" font-size="13" lengthAdjust="spacing" textLength="60" x="403.4" y="2279.1366">&#171;include&#187;</text></g><!--link UC_Moderate to UC_ShareToGroup--><g id="link_UC_Moderate_UC_ShareToGroup"><path d="M276.86,3117.1883 C259.12,3117.1883 245.4,3117.1883 245.4,3117.1883 C245.4,3117.1883 245.4,1883.4883 245.4,1883.4883 C245.4,1883.4883 248.08,1883.4883 260.57,1883.4883 " fill="none" id="UC_Moderate-to-UC_ShareToGroup" style="stroke:#444444;stroke-width:1.2;stroke-dasharray:7.0,7.0;"/><polygon fill="#444444" points="266.57,1883.4883,257.57,1879.4883,261.57,1883.4883,257.57,1887.4883,266.57,1883.4883" style="stroke:#444444;stroke-width:1.2;"/><text fill="#000000" font-family="sans-serif" font-size="13" lengthAdjust="spacing" textLength="60" x="184.4" y="2519.0566">&#171;include&#187;</text></g><!--SRC=[ZLPjRzis4FwkNt58WRP1a6Oj0XGfYW2Q7MSfaiQma-xZm4fdcxDCQYILp2lwjJ-WFt6_PCStYPATO4aGGCzpTxmxtWiDDnN2PxcXFxZN22D6_yQSBHNRPDahE0u_SCssiZ7m4kPcMt6nR9cimeK18q7nvSf0oHKMXakHwJKNDICxe5Uib8zMQS4gZGb3bj1iQmIfp4ecX69YhR66jwU_9AYG9JhqNOhcIid7aQoaWXUdfwT3vcx5YxL0hU7jctS9sMWiRBJVCe1VMR5UAjc8CjXPlBU_bf6gH9LO1vX8OURy7oJdik-fpnGu4ylgAPFkPsZoxEoCe9cNKm8L1KTMCrOOekbA530Dz-7xu98irf2N6ouEB76P1yP15id7MTPvSX3kDgzh9vzFfyuxTxCmbXl6nGV86xEo0169gaMzqltTRquBuFKCbrmRL8VEhT4VyTkprtB9HQJSXyTlc61BXAcI2qwcNyAK5wPH64K3GS8K-j2x6HQyHhthO22SZxEBKNHnf90P36hn10zwp8lDaQbY1LTYgR3aA8oEifv92A_mXUDZi0fZD8nNhOQbKjkKEdbSI-qQOu9OHa5BJ0dV7wcLt0tJeYx6oSN5E0Rfd4ajMy1-Uth2AxeKR_3hbXAF2rGe2cnTzXATndp55DrGyDdLMPiFIzr9XuKKoys64WDIE8qsoHuEjS3Ns6Cji3_kkImug-049ehoNUwvwg64oyVyjhtpEO61eolwgy7kM4jDPk5UYW9hSpB3Fydq4_8prBNiL5oYNH-68krTUiJsn-KojYSQZ_i6darZ39yaTN0lyHP9idwDx07x4WvAByQL-KdejvwenwBi7czlQBegPcSt9SgEasCfgktXhlkTe0lXvhQjoi3G7g4PIPNGdXtmtZImITLzxnpKy-wO6hIe6fhxTFaNVnjN7g_NT8jGoO9AmcuUB9i2eL1IQzeoshbiVHxqFRmvtzlUy04-VkJ-cFFp9_Mw9l-V2h7P1-9UFlPhaEtQqKcZYpJQ7iW-xqZQhOb2QxeJ_zxRyBdR8__- -Daz17AjRT_PcwQassrM-tbIkf8vx1u1hzmEoUu9EU-jXHRnsw3zZ1EVDCCOxxZUh6xHPCQIaXjSFQwF9EEjnNfph3ij3AtEKpkdw8ZXp4aC-P6IH1j7Hi-ZTZYGCT_o7T-rTdTkrykNUGJJhYKpNUjb-RYLYTsLG4ax9HAX7kBuxfV3hbolb0P5d5JEPsceFLrFqjJW6z-Lx47oqhtmR6S-bhr7eo2Ly6AKYwTsBhcluRP6GKykIUETNZhs1NELsQbjBMIxTWPx_cfZ9qrJLvALyC0PtGCl9_EJKIKRyeYfxNF6aiVDrq9jARuZ-FJx7IoeKPYjzsTqatqSjzfHN0X7wKBkZFm7]--></g></svg>