<?xml version="1.0" encoding="us-ascii" standalone="no"?><svg xmlns="http://www.w3.org/2000/svg" xmlns:xlink="http://www.w3.org/1999/xlink" contentStyleType="text/css" height="1431px" preserveAspectRatio="none" style="width:1545px;height:1431px;background:#FFFFFF;" version="1.1" viewBox="0 0 1545 1431" width="1545px" zoomAndPan="magnify"><defs/><g><text fill="#000000" font-family="sans-serif" font-size="14" font-weight="bold" lengthAdjust="spacing" textLength="157" x="687" y="23.5352">NomNom ER Diagram</text><!--class USER--><g id="elem_USER"><rect codeLine="15" fill="#F1F1F1" height="196.3945" id="USER" rx="2.5" ry="2.5" style="stroke:#181818;stroke-width:0.5;" width="178" x="44.5" y="791.9983"/><ellipse cx="111.75" cy="807.9983" fill="#ADD1B2" rx="11" ry="11" style="stroke:#181818;stroke-width:1.0;"/><path d="M115.3643,814.4983 L107.6445,814.4983 L107.6445,802.1052 L115.3643,802.1052 L115.3643,804.2634 L110.0933,804.2634 L110.0933,806.9363 L114.8662,806.9363 L114.8662,809.0945 L110.0933,809.0945 L110.0933,812.3401 L115.3643,812.3401 Z " fill="#000000"/><text fill="#000000" font-family="sans-serif" font-size="14" lengthAdjust="spacing" textLength="35" x="132.25" y="813.2893">USER</text><line style="stroke:#181818;stroke-width:0.5;" x1="45.5" x2="221.5" y1="823.9983" y2="823.9983"/><ellipse cx="55.5" cy="837.7424" fill="#000000" rx="3" ry="3" style="stroke:#000000;stroke-width:1.0;"/><text fill="#000000" font-family="sans-serif" font-size="14" lengthAdjust="spacing" textLength="89" x="64.5" y="841.5334">_id : ObjectId</text><line style="stroke:#181818;stroke-width:1.0;" x1="45.5" x2="221.5" y1="848.4866" y2="848.4866"/><text fill="#000000" font-family="sans-serif" font-size="14" lengthAdjust="spacing" textLength="120" x="50.5" y="866.0217">username : string</text><text fill="#000000" font-family="sans-serif" font-size="14" lengthAdjust="spacing" textLength="89" x="50.5" y="882.51">email : string</text><text fill="#000000" font-family="sans-serif" font-size="14" lengthAdjust="spacing" textLength="152" x="50.5" y="898.9983">passwordHash : string</text><text fill="#000000" font-family="sans-serif" font-size="14" lengthAdjust="spacing" textLength="166" x="50.5" y="915.4866">profilePictureRef : string</text><text fill="#000000" font-family="sans-serif" font-size="14" lengthAdjust="spacing" textLength="74" x="50.5" y="931.9748">bio : string</text><text fill="#000000" font-family="sans-serif" font-size="14" lengthAdjust="spacing" textLength="122" x="50.5" y="948.4631">preferences : json</text><text fill="#000000" font-family="sans-serif" font-size="14" lengthAdjust="spacing" textLength="109" x="50.5" y="964.9514">createdAt : Date</text><text fill="#000000" font-family="sans-serif" font-size="14" lengthAdjust="spacing" textLength="115" x="50.5" y="981.4397">updatedAt : Date</text></g><!--class GRP--><g id="elem_GRP"><rect codeLine="28" fill="#F1F1F1" height="163.418" id="GRP" rx="2.5" ry="2.5" style="stroke:#181818;stroke-width:0.5;" width="253" x="7" y="275.4883"/><ellipse cx="105.25" cy="291.4883" fill="#ADD1B2" rx="11" ry="11" style="stroke:#181818;stroke-width:1.0;"/><path d="M108.8643,297.9883 L101.1445,297.9883 L101.1445,285.5952 L108.8643,285.5952 L108.8643,287.7534 L103.5933,287.7534 L103.5933,290.4263 L108.3662,290.4263 L108.3662,292.5845 L103.5933,292.5845 L103.5933,295.8301 L108.8643,295.8301 Z " fill="#000000"/><text fill="#000000" font-family="sans-serif" font-size="14" lengthAdjust="spacing" textLength="48" x="125.75" y="296.7793">GROUP</text><line style="stroke:#181818;stroke-width:0.5;" x1="8" x2="259" y1="307.4883" y2="307.4883"/><ellipse cx="18" cy="321.2324" fill="#000000" rx="3" ry="3" style="stroke:#000000;stroke-width:1.0;"/><text fill="#000000" font-family="sans-serif" font-size="14" lengthAdjust="spacing" textLength="89" x="27" y="325.0234">_id : ObjectId</text><line style="stroke:#181818;stroke-width:1.0;" x1="8" x2="259" y1="331.9766" y2="331.9766"/><text fill="#000000" font-family="sans-serif" font-size="14" lengthAdjust="spacing" textLength="90" x="13" y="349.5117">name : string</text><text fill="#000000" font-family="sans-serif" font-size="14" lengthAdjust="spacing" textLength="129" x="13" y="366">description : string</text><text fill="#000000" font-family="sans-serif" font-size="14" lengthAdjust="spacing" textLength="158" x="13" y="382.4883">coverPictureRef : string</text><text fill="#000000" font-family="sans-serif" font-size="14" lengthAdjust="spacing" textLength="241" x="13" y="398.9766">createdBy : ObjectId &lt;FK USER._id&gt;</text><text fill="#000000" font-family="sans-serif" font-size="14" lengthAdjust="spacing" textLength="109" x="13" y="415.4648">createdAt : Date</text><text fill="#000000" font-family="sans-serif" font-size="14" lengthAdjust="spacing" textLength="115" x="13" y="431.9531">updatedAt : Date</text></g><!--class ING--><g id="elem_ING"><rect codeLine="39" fill="#F1F1F1" height="163.418" id="ING" rx="2.5" ry="2.5" style="stroke:#181818;stroke-width:0.5;" width="182" x="882.5" y="44.4883"/><ellipse cx="928.25" cy="60.4883" fill="#ADD1B2" rx="11" ry="11" style="stroke:#181818;stroke-width:1.0;"/><path d="M931.8643,66.9883 L924.1445,66.9883 L924.1445,54.5952 L931.8643,54.5952 L931.8643,56.7534 L926.5933,56.7534 L926.5933,59.4263 L931.3662,59.4263 L931.3662,61.5845 L926.5933,61.5845 L926.5933,64.8301 L931.8643,64.8301 Z " fill="#000000"/><text fill="#000000" font-family="sans-serif" font-size="14" lengthAdjust="spacing" textLength="82" x="948.75" y="65.7793">INGREDIENT</text><line style="stroke:#181818;stroke-width:0.5;" x1="883.5" x2="1063.5" y1="76.4883" y2="76.4883"/><ellipse cx="893.5" cy="90.2324" fill="#000000" rx="3" ry="3" style="stroke:#000000;stroke-width:1.0;"/><text fill="#000000" font-family="sans-serif" font-size="14" lengthAdjust="spacing" textLength="89" x="902.5" y="94.0234">_id : ObjectId</text><line style="stroke:#181818;stroke-width:1.0;" x1="883.5" x2="1063.5" y1="100.9766" y2="100.9766"/><text fill="#000000" font-family="sans-serif" font-size="14" lengthAdjust="spacing" textLength="90" x="888.5" y="118.5117">name : string</text><text fill="#000000" font-family="sans-serif" font-size="14" lengthAdjust="spacing" textLength="170" x="888.5" y="135">openFoodFactsId : string</text><text fill="#000000" font-family="sans-serif" font-size="14" lengthAdjust="spacing" textLength="152" x="888.5" y="151.4883">defaultNutrients : json</text><text fill="#000000" font-family="sans-serif" font-size="14" lengthAdjust="spacing" textLength="91" x="888.5" y="167.9766">tags : string[]</text><text fill="#000000" font-family="sans-serif" font-size="14" lengthAdjust="spacing" textLength="109" x="888.5" y="184.4648">createdAt : Date</text><text fill="#000000" font-family="sans-serif" font-size="14" lengthAdjust="spacing" textLength="115" x="888.5" y="200.9531">updatedAt : Date</text></g><!--class REC--><g id="elem_REC"><rect codeLine="50" fill="#F1F1F1" height="229.3711" id="REC" rx="2.5" ry="2.5" style="stroke:#181818;stroke-width:0.5;" width="253" x="847" y="574.5083"/><ellipse cx="945.75" cy="590.5083" fill="#ADD1B2" rx="11" ry="11" style="stroke:#181818;stroke-width:1.0;"/><path d="M949.3643,597.0083 L941.6445,597.0083 L941.6445,584.6152 L949.3643,584.6152 L949.3643,586.7734 L944.0933,586.7734 L944.0933,589.4463 L948.8662,589.4463 L948.8662,591.6045 L944.0933,591.6045 L944.0933,594.8501 L949.3643,594.8501 Z " fill="#000000"/><text fill="#000000" font-family="sans-serif" font-size="14" lengthAdjust="spacing" textLength="47" x="966.25" y="595.7993">RECIPE</text><line style="stroke:#181818;stroke-width:0.5;" x1="848" x2="1099" y1="606.5083" y2="606.5083"/><ellipse cx="858" cy="620.2524" fill="#000000" rx="3" ry="3" style="stroke:#000000;stroke-width:1.0;"/><text fill="#000000" font-family="sans-serif" font-size="14" lengthAdjust="spacing" textLength="89" x="867" y="624.0434">_id : ObjectId</text><line style="stroke:#181818;stroke-width:1.0;" x1="848" x2="1099" y1="630.9966" y2="630.9966"/><text fill="#000000" font-family="sans-serif" font-size="14" lengthAdjust="spacing" textLength="90" x="853" y="648.5317">name : string</text><text fill="#000000" font-family="sans-serif" font-size="14" lengthAdjust="spacing" textLength="129" x="853" y="665.02">description : string</text><text fill="#000000" font-family="sans-serif" font-size="14" lengthAdjust="spacing" textLength="160" x="853" y="681.5083">images : string[]    ' refs</text><text fill="#000000" font-family="sans-serif" font-size="14" lengthAdjust="spacing" textLength="135" x="853" y="697.9966">totalNutrients : json</text><text fill="#000000" font-family="sans-serif" font-size="14" lengthAdjust="spacing" textLength="115" x="853" y="714.4848">dietaryInfo : json</text><text fill="#000000" font-family="sans-serif" font-size="14" lengthAdjust="spacing" textLength="122" x="853" y="730.9731">cookTimeMin : int</text><text fill="#000000" font-family="sans-serif" font-size="14" lengthAdjust="spacing" textLength="241" x="853" y="747.4614">createdBy : ObjectId &lt;FK USER._id&gt;</text><text fill="#000000" font-family="sans-serif" font-size="14" lengthAdjust="spacing" textLength="219" x="853" y="763.9497">postId : ObjectId &lt;FK POST._id&gt;</text><text fill="#000000" font-family="sans-serif" font-size="14" lengthAdjust="spacing" textLength="109" x="853" y="780.438">createdAt : Date</text><text fill="#000000" font-family="sans-serif" font-size="14" lengthAdjust="spacing" textLength="115" x="853" y="796.9263">updatedAt : Date</text></g><!--class RI--><g id="elem_RI"><rect codeLine="65" fill="#F1F1F1" height="146.9297" id="RI" rx="2.5" ry="2.5" style="stroke:#181818;stroke-width:0.5;" width="318" x="1220" y="334.7283"/><ellipse cx="1306.75" cy="350.7283" fill="#ADD1B2" rx="11" ry="11" style="stroke:#181818;stroke-width:1.0;"/><path d="M1310.3643,357.2283 L1302.6445,357.2283 L1302.6445,344.8352 L1310.3643,344.8352 L1310.3643,346.9934 L1305.0933,346.9934 L1305.0933,349.6663 L1309.8662,349.6663 L1309.8662,351.8245 L1305.0933,351.8245 L1305.0933,355.0701 L1310.3643,355.0701 Z " fill="#000000"/><text fill="#000000" font-family="sans-serif" font-size="14" lengthAdjust="spacing" textLength="136" x="1327.25" y="356.0193">RECIPE_INGREDIENT</text><line style="stroke:#181818;stroke-width:0.5;" x1="1221" x2="1537" y1="366.7283" y2="366.7283"/><ellipse cx="1231" cy="380.4724" fill="#000000" rx="3" ry="3" style="stroke:#000000;stroke-width:1.0;"/><text fill="#000000" font-family="sans-serif" font-size="14" lengthAdjust="spacing" textLength="89" x="1240" y="384.2634">_id : ObjectId</text><line style="stroke:#181818;stroke-width:1.0;" x1="1221" x2="1537" y1="391.2166" y2="391.2166"/><text fill="#000000" font-family="sans-serif" font-size="14" lengthAdjust="spacing" textLength="242" x="1226" y="408.7517">recipeId : ObjectId &lt;FK RECIPE._id&gt;</text><text fill="#000000" font-family="sans-serif" font-size="14" lengthAdjust="spacing" textLength="306" x="1226" y="425.24">ingredientId : ObjectId &lt;FK INGREDIENT._id&gt;</text><text fill="#000000" font-family="sans-serif" font-size="14" lengthAdjust="spacing" textLength="99" x="1226" y="441.7283">quantity : float</text><text fill="#000000" font-family="sans-serif" font-size="14" lengthAdjust="spacing" textLength="79" x="1226" y="458.2166">unit : string</text><text fill="#000000" font-family="sans-serif" font-size="14" lengthAdjust="spacing" textLength="155" x="1226" y="474.7048">derivedNutrients : json</text></g><!--class POST--><g id="elem_POST"><rect codeLine="75" fill="#F1F1F1" height="196.3945" id="POST" rx="2.5" ry="2.5" style="stroke:#181818;stroke-width:0.5;" width="347" x="380" y="527.9983"/><ellipse cx="531.25" cy="543.9983" fill="#ADD1B2" rx="11" ry="11" style="stroke:#181818;stroke-width:1.0;"/><path d="M534.8643,550.4983 L527.1445,550.4983 L527.1445,538.1052 L534.8643,538.1052 L534.8643,540.2634 L529.5933,540.2634 L529.5933,542.9363 L534.3662,542.9363 L534.3662,545.0945 L529.5933,545.0945 L529.5933,548.3401 L534.8643,548.3401 Z " fill="#000000"/><text fill="#000000" font-family="sans-serif" font-size="14" lengthAdjust="spacing" textLength="36" x="551.75" y="549.2893">POST</text><line style="stroke:#181818;stroke-width:0.5;" x1="381" x2="726" y1="559.9983" y2="559.9983"/><ellipse cx="391" cy="573.7424" fill="#000000" rx="3" ry="3" style="stroke:#000000;stroke-width:1.0;"/><text fill="#000000" font-family="sans-serif" font-size="14" lengthAdjust="spacing" textLength="89" x="400" y="577.5334">_id : ObjectId</text><line style="stroke:#181818;stroke-width:1.0;" x1="381" x2="726" y1="584.4866" y2="584.4866"/><text fill="#000000" font-family="sans-serif" font-size="14" lengthAdjust="spacing" textLength="104" x="386" y="602.0217">content : string</text><text fill="#000000" font-family="sans-serif" font-size="14" lengthAdjust="spacing" textLength="326" x="386" y="618.51">recipeId : ObjectId &lt;FK RECIPE._id&gt;     ' optional</text><text fill="#000000" font-family="sans-serif" font-size="14" lengthAdjust="spacing" textLength="241" x="386" y="634.9983">createdBy : ObjectId &lt;FK USER._id&gt;</text><text fill="#000000" font-family="sans-serif" font-size="14" lengthAdjust="spacing" textLength="335" x="386" y="651.4866">groupId : ObjectId &lt;FK GROUP._id&gt;       ' optional</text><text fill="#000000" font-family="sans-serif" font-size="14" lengthAdjust="spacing" textLength="327" x="386" y="667.9748">originalPostId : ObjectId &lt;FK POST._id&gt; ' shares</text><text fill="#000000" font-family="sans-serif" font-size="14" lengthAdjust="spacing" textLength="258" x="386" y="684.4631">visibility : enum(public|friends|group)</text><text fill="#000000" font-family="sans-serif" font-size="14" lengthAdjust="spacing" textLength="109" x="386" y="700.9514">createdAt : Date</text><text fill="#000000" font-family="sans-serif" font-size="14" lengthAdjust="spacing" textLength="115" x="386" y="717.4397">updatedAt : Date</text></g><!--class CMT--><g id="elem_CMT"><rect codeLine="88" fill="#F1F1F1" height="146.9297" id="CMT" rx="2.5" ry="2.5" style="stroke:#181818;stroke-width:0.5;" width="246" x="850.5" y="317.7283"/><ellipse cx="933.25" cy="333.7283" fill="#ADD1B2" rx="11" ry="11" style="stroke:#181818;stroke-width:1.0;"/><path d="M936.8643,340.2283 L929.1445,340.2283 L929.1445,327.8352 L936.8643,327.8352 L936.8643,329.9934 L931.5933,329.9934 L931.5933,332.6663 L936.3662,332.6663 L936.3662,334.8245 L931.5933,334.8245 L931.5933,338.0701 L936.8643,338.0701 Z " fill="#000000"/><text fill="#000000" font-family="sans-serif" font-size="14" lengthAdjust="spacing" textLength="72" x="953.75" y="339.0193">COMMENT</text><line style="stroke:#181818;stroke-width:0.5;" x1="851.5" x2="1095.5" y1="349.7283" y2="349.7283"/><ellipse cx="861.5" cy="363.4724" fill="#000000" rx="3" ry="3" style="stroke:#000000;stroke-width:1.0;"/><text fill="#000000" font-family="sans-serif" font-size="14" lengthAdjust="spacing" textLength="89" x="870.5" y="367.2634">_id : ObjectId</text><line style="stroke:#181818;stroke-width:1.0;" x1="851.5" x2="1095.5" y1="374.2166" y2="374.2166"/><text fill="#000000" font-family="sans-serif" font-size="14" lengthAdjust="spacing" textLength="219" x="856.5" y="391.7517">postId : ObjectId &lt;FK POST._id&gt;</text><text fill="#000000" font-family="sans-serif" font-size="14" lengthAdjust="spacing" textLength="234" x="856.5" y="408.24">authorId : ObjectId &lt;FK USER._id&gt;</text><text fill="#000000" font-family="sans-serif" font-size="14" lengthAdjust="spacing" textLength="104" x="856.5" y="424.7283">content : string</text><text fill="#000000" font-family="sans-serif" font-size="14" lengthAdjust="spacing" textLength="109" x="856.5" y="441.2166">createdAt : Date</text><text fill="#000000" font-family="sans-serif" font-size="14" lengthAdjust="spacing" textLength="115" x="856.5" y="457.7048">updatedAt : Date</text></g><!--class FR--><g id="elem_FR"><rect codeLine="98" fill="#F1F1F1" height="146.9297" id="FR" rx="2.5" ry="2.5" style="stroke:#181818;stroke-width:0.5;" width="296" x="405.5" y="1277.7283"/><ellipse cx="524.75" cy="1293.7283" fill="#ADD1B2" rx="11" ry="11" style="stroke:#181818;stroke-width:1.0;"/><path d="M528.3643,1300.2283 L520.6445,1300.2283 L520.6445,1287.8352 L528.3643,1287.8352 L528.3643,1289.9934 L523.0933,1289.9934 L523.0933,1292.6663 L527.8662,1292.6663 L527.8662,1294.8245 L523.0933,1294.8245 L523.0933,1298.0701 L528.3643,1298.0701 Z " fill="#000000"/><text fill="#000000" font-family="sans-serif" font-size="14" lengthAdjust="spacing" textLength="49" x="545.25" y="1299.0193">FRIEND</text><line style="stroke:#181818;stroke-width:0.5;" x1="406.5" x2="700.5" y1="1309.7283" y2="1309.7283"/><ellipse cx="416.5" cy="1323.4724" fill="#000000" rx="3" ry="3" style="stroke:#000000;stroke-width:1.0;"/><text fill="#000000" font-family="sans-serif" font-size="14" lengthAdjust="spacing" textLength="89" x="425.5" y="1327.2634">_id : ObjectId</text><line style="stroke:#181818;stroke-width:1.0;" x1="406.5" x2="700.5" y1="1334.2166" y2="1334.2166"/><text fill="#000000" font-family="sans-serif" font-size="14" lengthAdjust="spacing" textLength="218" x="411.5" y="1351.7517">userId : ObjectId &lt;FK USER._id&gt;</text><text fill="#000000" font-family="sans-serif" font-size="14" lengthAdjust="spacing" textLength="229" x="411.5" y="1368.24">friendId : ObjectId &lt;FK USER._id&gt;</text><text fill="#000000" font-family="sans-serif" font-size="14" lengthAdjust="spacing" textLength="284" x="411.5" y="1384.7283">status : enum(pending|accepted|blocked)</text><text fill="#000000" font-family="sans-serif" font-size="14" lengthAdjust="spacing" textLength="109" x="411.5" y="1401.2166">createdAt : Date</text><text fill="#000000" font-family="sans-serif" font-size="14" lengthAdjust="spacing" textLength="115" x="411.5" y="1417.7048">updatedAt : Date</text></g><!--class GM--><g id="elem_GM"><rect codeLine="108" fill="#F1F1F1" height="130.4414" id="GM" rx="2.5" ry="2.5" style="stroke:#181818;stroke-width:0.5;" width="255" x="426" y="47.9683"/><ellipse cx="493.25" cy="63.9683" fill="#ADD1B2" rx="11" ry="11" style="stroke:#181818;stroke-width:1.0;"/><path d="M496.8643,70.4683 L489.1445,70.4683 L489.1445,58.0752 L496.8643,58.0752 L496.8643,60.2334 L491.5933,60.2334 L491.5933,62.9063 L496.3662,62.9063 L496.3662,65.0645 L491.5933,65.0645 L491.5933,68.3101 L496.8643,68.3101 Z " fill="#000000"/><text fill="#000000" font-family="sans-serif" font-size="14" lengthAdjust="spacing" textLength="112" x="513.75" y="69.2593">GROUP_MEMBER</text><line style="stroke:#181818;stroke-width:0.5;" x1="427" x2="680" y1="79.9683" y2="79.9683"/><ellipse cx="437" cy="93.7124" fill="#000000" rx="3" ry="3" style="stroke:#000000;stroke-width:1.0;"/><text fill="#000000" font-family="sans-serif" font-size="14" lengthAdjust="spacing" textLength="89" x="446" y="97.5034">_id : ObjectId</text><line style="stroke:#181818;stroke-width:1.0;" x1="427" x2="680" y1="104.4566" y2="104.4566"/><text fill="#000000" font-family="sans-serif" font-size="14" lengthAdjust="spacing" textLength="243" x="432" y="121.9917">groupId : ObjectId &lt;FK GROUP._id&gt;</text><text fill="#000000" font-family="sans-serif" font-size="14" lengthAdjust="spacing" textLength="222" x="432" y="138.48">userId  : ObjectId &lt;FK USER._id&gt;</text><text fill="#000000" font-family="sans-serif" font-size="14" lengthAdjust="spacing" textLength="193" x="432" y="154.9683">role : enum(member|admin)</text><text fill="#000000" font-family="sans-serif" font-size="14" lengthAdjust="spacing" textLength="109" x="432" y="171.4566">createdAt : Date</text></g><!--class PL--><g id="elem_PL"><rect codeLine="117" fill="#F1F1F1" height="113.9531" id="PL" rx="2.5" ry="2.5" style="stroke:#181818;stroke-width:0.5;" width="231" x="858" y="961.2183"/><ellipse cx="933.75" cy="977.2183" fill="#ADD1B2" rx="11" ry="11" style="stroke:#181818;stroke-width:1.0;"/><path d="M937.3643,983.7183 L929.6445,983.7183 L929.6445,971.3252 L937.3643,971.3252 L937.3643,973.4834 L932.0933,973.4834 L932.0933,976.1563 L936.8662,976.1563 L936.8662,978.3145 L932.0933,978.3145 L932.0933,981.5601 L937.3643,981.5601 Z " fill="#000000"/><text fill="#000000" font-family="sans-serif" font-size="14" lengthAdjust="spacing" textLength="71" x="954.25" y="982.5093">POST_LIKE</text><line style="stroke:#181818;stroke-width:0.5;" x1="859" x2="1088" y1="993.2183" y2="993.2183"/><ellipse cx="869" cy="1006.9624" fill="#000000" rx="3" ry="3" style="stroke:#000000;stroke-width:1.0;"/><text fill="#000000" font-family="sans-serif" font-size="14" lengthAdjust="spacing" textLength="89" x="878" y="1010.7534">_id : ObjectId</text><line style="stroke:#181818;stroke-width:1.0;" x1="859" x2="1088" y1="1017.7066" y2="1017.7066"/><text fill="#000000" font-family="sans-serif" font-size="14" lengthAdjust="spacing" textLength="219" x="864" y="1035.2417">postId : ObjectId &lt;FK POST._id&gt;</text><text fill="#000000" font-family="sans-serif" font-size="14" lengthAdjust="spacing" textLength="218" x="864" y="1051.73">userId : ObjectId &lt;FK USER._id&gt;</text><text fill="#000000" font-family="sans-serif" font-size="14" lengthAdjust="spacing" textLength="109" x="864" y="1068.2183">createdAt : Date</text></g><!--link USER to REC--><g id="link_USER_REC"><path codeLine="126" d="M231,800.9083 C380.86,800.9083 656.98,800.9083 828.68,800.9083 " fill="none" id="USER-REC" style="stroke:#444444;stroke-width:1.0;"/><line style="stroke:#444444;stroke-width:1.0;" x1="227" x2="227" y1="804.9083" y2="796.9083"/><line style="stroke:#444444;stroke-width:1.0;" x1="230" x2="230" y1="804.9083" y2="796.9083"/><line style="stroke:#444444;stroke-width:1.0;" x1="231" x2="223" y1="800.9083" y2="800.9083"/><line style="stroke:#444444;stroke-width:1.0;" x1="838.68" x2="846.68" y1="800.9083" y2="794.9083"/><line style="stroke:#444444;stroke-width:1.0;" x1="838.68" x2="846.68" y1="800.9083" y2="806.9083"/><line style="stroke:#444444;stroke-width:1.0;" x1="838.68" x2="846.68" y1="800.9083" y2="800.9083"/><ellipse cx="832.68" cy="800.9083" fill="none" rx="4" ry="4" style="stroke:#444444;stroke-width:1.0;"/><text fill="#000000" font-family="sans-serif" font-size="13" lengthAdjust="spacing" textLength="45" x="488.84" y="814.4766">creates</text></g><!--link USER to POST--><g id="link_USER_POST"><path codeLine="127" d="M230.81,797.9383 C305.87,797.9383 393,797.9383 393,797.9383 C393,797.9383 393,780.9783 393,742.6083 " fill="none" id="USER-POST" style="stroke:#444444;stroke-width:1.0;"/><line style="stroke:#444444;stroke-width:1.0;" x1="226.81" x2="226.81" y1="801.9383" y2="793.9383"/><line style="stroke:#444444;stroke-width:1.0;" x1="229.81" x2="229.81" y1="801.9383" y2="793.9383"/><line style="stroke:#444444;stroke-width:1.0;" x1="230.81" x2="222.81" y1="797.9383" y2="797.9383"/><line style="stroke:#444444;stroke-width:1.0;" x1="393" x2="387" y1="732.6083" y2="724.6083"/><line style="stroke:#444444;stroke-width:1.0;" x1="393" x2="399" y1="732.6083" y2="724.6083"/><line style="stroke:#444444;stroke-width:1.0;" x1="393" x2="393" y1="732.6083" y2="724.6083"/><ellipse cx="393" cy="738.6083" fill="none" rx="4" ry="4" style="stroke:#444444;stroke-width:1.0;"/><text fill="#000000" font-family="sans-serif" font-size="13" lengthAdjust="spacing" textLength="45" x="298.57" y="811.5066">creates</text></g><!--link USER to CMT--><g id="link_USER_CMT"><path codeLine="128" d="M133,783.6683 C133,653.2183 133,447.4883 133,447.4883 C133,447.4883 598.93,447.4883 832.38,447.4883 " fill="none" id="USER-CMT" style="stroke:#444444;stroke-width:1.0;"/><line style="stroke:#444444;stroke-width:1.0;" x1="137" x2="129" y1="787.6683" y2="787.6683"/><line style="stroke:#444444;stroke-width:1.0;" x1="137" x2="129" y1="784.6683" y2="784.6683"/><line style="stroke:#444444;stroke-width:1.0;" x1="133" x2="133" y1="783.6683" y2="791.6683"/><line style="stroke:#444444;stroke-width:1.0;" x1="842.38" x2="850.38" y1="447.4883" y2="441.4883"/><line style="stroke:#444444;stroke-width:1.0;" x1="842.38" x2="850.38" y1="447.4883" y2="453.4883"/><line style="stroke:#444444;stroke-width:1.0;" x1="842.38" x2="850.38" y1="447.4883" y2="447.4883"/><ellipse cx="836.38" cy="447.4883" fill="none" rx="4" ry="4" style="stroke:#444444;stroke-width:1.0;"/><text fill="#000000" font-family="sans-serif" font-size="13" lengthAdjust="spacing" textLength="38" x="280.6" y="461.0566">writes</text></g><!--link USER to FR--><g id="link_USER_FR"><path codeLine="129" d="M230.91,977.5183 C367.14,977.5183 603,977.5183 603,977.5183 C603,977.5183 603,1150.4683 603,1259.3683 " fill="none" id="USER-FR" style="stroke:#444444;stroke-width:1.0;"/><line style="stroke:#444444;stroke-width:1.0;" x1="226.91" x2="226.91" y1="981.5183" y2="973.5183"/><line style="stroke:#444444;stroke-width:1.0;" x1="229.91" x2="229.91" y1="981.5183" y2="973.5183"/><line style="stroke:#444444;stroke-width:1.0;" x1="230.91" x2="222.91" y1="977.5183" y2="977.5183"/><line style="stroke:#444444;stroke-width:1.0;" x1="603" x2="609" y1="1269.3683" y2="1277.3683"/><line style="stroke:#444444;stroke-width:1.0;" x1="603" x2="597" y1="1269.3683" y2="1277.3683"/><line style="stroke:#444444;stroke-width:1.0;" x1="603" x2="603" y1="1269.3683" y2="1277.3683"/><ellipse cx="603" cy="1263.3683" fill="none" rx="4" ry="4" style="stroke:#444444;stroke-width:1.0;"/><text fill="#000000" font-family="sans-serif" font-size="13" lengthAdjust="spacing" textLength="71" x="563.88" y="991.0866">friendships</text></g><!--link FR to USER--><g id="link_FR_USER"><path codeLine="130" d="M504,1259.5583 C504,1152.0983 504,982.9583 504,982.9583 C504,982.9583 340.35,982.9583 230.72,982.9583 " fill="none" id="FR-USER" style="stroke:#444444;stroke-width:1.0;"/><line style="stroke:#444444;stroke-width:1.0;" x1="504" x2="510" y1="1269.5583" y2="1277.5583"/><line style="stroke:#444444;stroke-width:1.0;" x1="504" x2="498" y1="1269.5583" y2="1277.5583"/><line style="stroke:#444444;stroke-width:1.0;" x1="504" x2="504" y1="1269.5583" y2="1277.5583"/><ellipse cx="504" cy="1263.5583" fill="none" rx="4" ry="4" style="stroke:#444444;stroke-width:1.0;"/><line style="stroke:#444444;stroke-width:1.0;" x1="226.72" x2="226.72" y1="986.9583" y2="978.9583"/><line style="stroke:#444444;stroke-width:1.0;" x1="229.72" x2="229.72" y1="986.9583" y2="978.9583"/><line style="stroke:#444444;stroke-width:1.0;" x1="230.72" x2="222.72" y1="982.9583" y2="982.9583"/><text fill="#000000" font-family="sans-serif" font-size="13" lengthAdjust="spacing" textLength="69" x="434" y="1003.1866">friendId_of</text></g><!--link GRP to POST--><g id="link_GRP_POST"><path codeLine="132" d="M268.36,378.3183 C338.26,378.3183 403,378.3183 403,378.3183 C403,378.3183 403,440.3883 403,509.5183 " fill="none" id="GRP-POST" style="stroke:#444444;stroke-width:1.0;"/><line style="stroke:#444444;stroke-width:1.0;" x1="264.36" x2="264.36" y1="382.3183" y2="374.3183"/><line style="stroke:#444444;stroke-width:1.0;" x1="267.36" x2="267.36" y1="382.3183" y2="374.3183"/><line style="stroke:#444444;stroke-width:1.0;" x1="268.36" x2="260.36" y1="378.3183" y2="378.3183"/><line style="stroke:#444444;stroke-width:1.0;" x1="403" x2="409" y1="519.5183" y2="527.5183"/><line style="stroke:#444444;stroke-width:1.0;" x1="403" x2="397" y1="519.5183" y2="527.5183"/><line style="stroke:#444444;stroke-width:1.0;" x1="403" x2="403" y1="519.5183" y2="527.5183"/><ellipse cx="403" cy="513.5183" fill="none" rx="4" ry="4" style="stroke:#444444;stroke-width:1.0;"/><text fill="#000000" font-family="sans-serif" font-size="13" lengthAdjust="spacing" textLength="54" x="348" y="395.1666">contains</text></g><!--link USER to GM--><g id="link_USER_GM"><path codeLine="133" d="M230.6,794.9683 C270.19,794.9683 300,794.9683 300,794.9683 C300,794.9683 300,113.1983 300,113.1983 C300,113.1983 344.63,113.1983 407.64,113.1983 " fill="none" id="USER-GM" style="stroke:#444444;stroke-width:1.0;"/><line style="stroke:#444444;stroke-width:1.0;" x1="226.6" x2="226.6" y1="798.9683" y2="790.9683"/><line style="stroke:#444444;stroke-width:1.0;" x1="229.6" x2="229.6" y1="798.9683" y2="790.9683"/><line style="stroke:#444444;stroke-width:1.0;" x1="230.6" x2="222.6" y1="794.9683" y2="794.9683"/><line style="stroke:#444444;stroke-width:1.0;" x1="417.64" x2="425.64" y1="113.1983" y2="107.1983"/><line style="stroke:#444444;stroke-width:1.0;" x1="417.64" x2="425.64" y1="113.1983" y2="119.1983"/><line style="stroke:#444444;stroke-width:1.0;" x1="417.64" x2="425.64" y1="113.1983" y2="113.1983"/><ellipse cx="411.64" cy="113.1983" fill="none" rx="4" ry="4" style="stroke:#444444;stroke-width:1.0;"/><text fill="#000000" font-family="sans-serif" font-size="13" lengthAdjust="spacing" textLength="31" x="268" y="443.5266">joins</text></g><!--link GRP to GM--><g id="link_GRP_GM"><path codeLine="134" d="M268.22,296.6083 C391.71,296.6083 553,296.6083 553,296.6083 C553,296.6083 553,249.5183 553,196.8883 " fill="none" id="GRP-GM" style="stroke:#444444;stroke-width:1.0;"/><line style="stroke:#444444;stroke-width:1.0;" x1="264.22" x2="264.22" y1="300.6083" y2="292.6083"/><line style="stroke:#444444;stroke-width:1.0;" x1="267.22" x2="267.22" y1="300.6083" y2="292.6083"/><line style="stroke:#444444;stroke-width:1.0;" x1="268.22" x2="260.22" y1="296.6083" y2="296.6083"/><line style="stroke:#444444;stroke-width:1.0;" x1="553" x2="547" y1="186.8883" y2="178.8883"/><line style="stroke:#444444;stroke-width:1.0;" x1="553" x2="559" y1="186.8883" y2="178.8883"/><line style="stroke:#444444;stroke-width:1.0;" x1="553" x2="553" y1="186.8883" y2="178.8883"/><ellipse cx="553" cy="192.8883" fill="none" rx="4" ry="4" style="stroke:#444444;stroke-width:1.0;"/><text fill="#000000" font-family="sans-serif" font-size="13" lengthAdjust="spacing" textLength="22" x="442.47" y="310.1766">has</text></g><!--link REC to RI--><g id="link_REC_RI"><path codeLine="136" d="M973,566.2183 C973,514.6283 973,473.1583 973,473.1583 C973,473.1583 1087.96,473.1583 1201.7,473.1583 " fill="none" id="REC-RI" style="stroke:#444444;stroke-width:1.0;"/><line style="stroke:#444444;stroke-width:1.0;" x1="977" x2="969" y1="570.2183" y2="570.2183"/><line style="stroke:#444444;stroke-width:1.0;" x1="977" x2="969" y1="567.2183" y2="567.2183"/><line style="stroke:#444444;stroke-width:1.0;" x1="973" x2="973" y1="566.2183" y2="574.2183"/><line style="stroke:#444444;stroke-width:1.0;" x1="1211.7" x2="1219.7" y1="473.1583" y2="467.1583"/><line style="stroke:#444444;stroke-width:1.0;" x1="1211.7" x2="1219.7" y1="473.1583" y2="479.1583"/><line style="stroke:#444444;stroke-width:1.0;" x1="1211.7" x2="1219.7" y1="473.1583" y2="473.1583"/><ellipse cx="1205.7" cy="473.1583" fill="none" rx="4" ry="4" style="stroke:#444444;stroke-width:1.0;"/><text fill="#000000" font-family="sans-serif" font-size="13" lengthAdjust="spacing" textLength="22" x="1022.82" y="486.7266">has</text></g><!--link ING to RI--><g id="link_ING_RI"><path codeLine="137" d="M1072.75,126.1983 C1192.33,126.1983 1379,126.1983 1379,126.1983 C1379,126.1983 1379,232.9183 1379,316.4683 " fill="none" id="ING-RI" style="stroke:#444444;stroke-width:1.0;"/><line style="stroke:#444444;stroke-width:1.0;" x1="1068.75" x2="1068.75" y1="130.1983" y2="122.1983"/><line style="stroke:#444444;stroke-width:1.0;" x1="1071.75" x2="1071.75" y1="130.1983" y2="122.1983"/><line style="stroke:#444444;stroke-width:1.0;" x1="1072.75" x2="1064.75" y1="126.1983" y2="126.1983"/><line style="stroke:#444444;stroke-width:1.0;" x1="1379" x2="1385" y1="326.4683" y2="334.4683"/><line style="stroke:#444444;stroke-width:1.0;" x1="1379" x2="1373" y1="326.4683" y2="334.4683"/><line style="stroke:#444444;stroke-width:1.0;" x1="1379" x2="1379" y1="326.4683" y2="334.4683"/><ellipse cx="1379" cy="320.4683" fill="none" rx="4" ry="4" style="stroke:#444444;stroke-width:1.0;"/><text fill="#000000" font-family="sans-serif" font-size="13" lengthAdjust="spacing" textLength="49" x="1276.02" y="139.7666">used_in</text></g><!--link POST to CMT--><g id="link_POST_CMT"><path codeLine="139" d="M704,519.7283 C704,482.1083 704,456.0683 704,456.0683 C704,456.0683 761.22,456.0683 832.19,456.0683 " fill="none" id="POST-CMT" style="stroke:#444444;stroke-width:1.0;"/><line style="stroke:#444444;stroke-width:1.0;" x1="708" x2="700" y1="523.7283" y2="523.7283"/><line style="stroke:#444444;stroke-width:1.0;" x1="708" x2="700" y1="520.7283" y2="520.7283"/><line style="stroke:#444444;stroke-width:1.0;" x1="704" x2="704" y1="519.7283" y2="527.7283"/><line style="stroke:#444444;stroke-width:1.0;" x1="842.19" x2="850.19" y1="456.0683" y2="450.0683"/><line style="stroke:#444444;stroke-width:1.0;" x1="842.19" x2="850.19" y1="456.0683" y2="462.0683"/><line style="stroke:#444444;stroke-width:1.0;" x1="842.19" x2="850.19" y1="456.0683" y2="456.0683"/><ellipse cx="836.19" cy="456.0683" fill="none" rx="4" ry="4" style="stroke:#444444;stroke-width:1.0;"/><text fill="#000000" font-family="sans-serif" font-size="13" lengthAdjust="spacing" textLength="22" x="718.27" y="469.6366">has</text></g><!--link POST to PL--><g id="link_POST_PL"><path codeLine="140" d="M714,732.6683 C714,833.2183 714,966.6483 714,966.6483 C714,966.6483 770.59,966.6483 839.79,966.6483 " fill="none" id="POST-PL" style="stroke:#444444;stroke-width:1.0;"/><line style="stroke:#444444;stroke-width:1.0;" x1="710" x2="718" y1="728.6683" y2="728.6683"/><line style="stroke:#444444;stroke-width:1.0;" x1="710" x2="718" y1="731.6683" y2="731.6683"/><line style="stroke:#444444;stroke-width:1.0;" x1="714" x2="714" y1="732.6683" y2="724.6683"/><line style="stroke:#444444;stroke-width:1.0;" x1="849.79" x2="857.79" y1="966.6483" y2="960.6483"/><line style="stroke:#444444;stroke-width:1.0;" x1="849.79" x2="857.79" y1="966.6483" y2="972.6483"/><line style="stroke:#444444;stroke-width:1.0;" x1="849.79" x2="857.79" y1="966.6483" y2="966.6483"/><ellipse cx="843.79" cy="966.6483" fill="none" rx="4" ry="4" style="stroke:#444444;stroke-width:1.0;"/><text fill="#000000" font-family="sans-serif" font-size="13" lengthAdjust="spacing" textLength="53" x="660" y="931.1266">liked_by</text></g><!--link USER to PL--><g id="link_USER_PL"><path codeLine="141" d="M231,972.0883 C384.13,972.0883 670.27,972.0883 839.75,972.0883 " fill="none" id="USER-PL" style="stroke:#444444;stroke-width:1.0;"/><line style="stroke:#444444;stroke-width:1.0;" x1="227" x2="227" y1="976.0883" y2="968.0883"/><line style="stroke:#444444;stroke-width:1.0;" x1="230" x2="230" y1="976.0883" y2="968.0883"/><line style="stroke:#444444;stroke-width:1.0;" x1="231" x2="223" y1="972.0883" y2="972.0883"/><line style="stroke:#444444;stroke-width:1.0;" x1="849.75" x2="857.75" y1="972.0883" y2="966.0883"/><line style="stroke:#444444;stroke-width:1.0;" x1="849.75" x2="857.75" y1="972.0883" y2="978.0883"/><line style="stroke:#444444;stroke-width:1.0;" x1="849.75" x2="857.75" y1="972.0883" y2="972.0883"/><ellipse cx="843.75" cy="972.0883" fill="none" rx="4" ry="4" style="stroke:#444444;stroke-width:1.0;"/><text fill="#000000" font-family="sans-serif" font-size="13" lengthAdjust="spacing" textLength="30" x="509.37" y="985.6566">likes</text></g><!--link POST to REC--><g id="link_POST_REC"><path codeLine="143" d="M735.36,649.4483 C775.31,649.4483 801.05,649.4483 838.57,649.4483 " fill="none" id="POST-REC" style="stroke:#444444;stroke-width:1.0;"/><line style="stroke:#444444;stroke-width:1.0;" x1="731.36" x2="731.36" y1="653.4483" y2="645.4483"/><line style="stroke:#444444;stroke-width:1.0;" x1="734.36" x2="734.36" y1="653.4483" y2="645.4483"/><line style="stroke:#444444;stroke-width:1.0;" x1="735.36" x2="727.36" y1="649.4483" y2="649.4483"/><line style="stroke:#444444;stroke-width:1.0;" x1="842.57" x2="842.57" y1="645.4483" y2="653.4483"/><line style="stroke:#444444;stroke-width:1.0;" x1="839.57" x2="839.57" y1="645.4483" y2="653.4483"/><line style="stroke:#444444;stroke-width:1.0;" x1="838.57" x2="846.57" y1="649.4483" y2="649.4483"/><text fill="#000000" font-family="sans-serif" font-size="13" lengthAdjust="spacing" textLength="65" x="720.97" y="663.0166">references</text></g><!--link POST to POST--><g id="link_POST_POST"><path codeLine="144" d="M361.66,626.1983 C338.19,626.1983 340,626.1983 340,626.1983 C340,626.1983 340,504.8283 340,504.8283 C340,504.8283 787,504.8283 787,504.8283 C787,504.8283 787,551.2483 787,551.2483 C787,551.2483 769.56,551.2483 735.47,551.2483 " fill="none" id="POST-POST" style="stroke:#444444;stroke-width:1.0;"/><line style="stroke:#444444;stroke-width:1.0;" x1="371.66" x2="379.66" y1="626.1983" y2="620.1983"/><line style="stroke:#444444;stroke-width:1.0;" x1="371.66" x2="379.66" y1="626.1983" y2="632.1983"/><line style="stroke:#444444;stroke-width:1.0;" x1="371.66" x2="379.66" y1="626.1983" y2="626.1983"/><ellipse cx="365.66" cy="626.1983" fill="none" rx="4" ry="4" style="stroke:#444444;stroke-width:1.0;"/><line style="stroke:#444444;stroke-width:1.0;" x1="731.47" x2="731.47" y1="555.2483" y2="547.2483"/><line style="stroke:#444444;stroke-width:1.0;" x1="734.47" x2="734.47" y1="555.2483" y2="547.2483"/><line style="stroke:#444444;stroke-width:1.0;" x1="735.47" x2="727.47" y1="551.2483" y2="551.2483"/><text fill="#000000" font-family="sans-serif" font-size="13" lengthAdjust="spacing" textLength="41" x="488.96" y="496.3966">shares</text></g><!--SRC=[hLPHRzis47xNho2wXpO3F3H3WW76CA19x5HedHXA-ZGC1YsUx8ifKYEf15xL_xwZfDYKRIXnspWmwBlJyVk-Enxbq4bWDpgdVpPAs1NoXU5v54d877EQ6Lmi7HDe87MeLMHNg0fE8SmkkT1Fg1Oiuz92u96emAqBODgufGuSXgkLXOAT_lu-i2ejeBQUXjOFnkYdIosrOR-SdPq57b0EtPfzZHYxuEbgONIfH1kP_U4_tgED0DDQpy_FoJJMojtXVy1Epw9lKTIcUVFbRfIyOTmolwYp_ifcADYGtSuVY7Kio3GOq5TfmIYU0xciCyISR91pbA6XuDO-qUOVkLrsx4PdA66AgIiD9925pZdgRYnaO42bOCdyO4btnb83t87uuCXqHIiFg11TKq3hEhdzCgrvNIVJNbgxbAWQgS72bpiqf_eHp67uBRIBTP2T_Jd-L4lw6-twr_7uuvlhP7GLZsxkQnBqyoWIkW0rrbgCUUfiBBhyCbvATrEIWNOB97PyOJUHV_zpFEXaT1bFHpLWMluCrJ7d2mX1CVfxowX1h0Ui7PS7Y0W4nyqwLfaE6aZhrJtcC46_0ohtsieLshfOx4PCR-_klxEsZKopdH8dSQzWD86mW7qSJR9d9AIH0U7bs8_SxlSS_M_96qX3badDlIAbGjUjYy5747iY1tIy4ZK3l-ZbaD88egV2_A-WnPgQwxevk7njsVnWBFOJruDXctSdiwQ1ZxISzjUS7gBvRy0tuIDQdADiP0HLvk-ASYunhJAlcB1L3UJa-3Qvl9rCdflZSjAlxCizoakwZCn-J6T6xTVdICpZXFhhgeOyVlaswKVJwDSVOnrtfTq8J_44k-9f2WL1hEPIfoiG9zzvVymceyb5UprUJthflDXjMyfzV8oMyCmcXtmEfk8YHtMGmSuPd7sEFpN3T_hv1vlbvU8S0lEMqWy6B079_O6oIomiUvTo8_oHGeTWJ-gGg7xNgAh1G7-jRufXcyzsFFKyEUpovs78dWpkEgZh_3HhZfu747aB-wO7Wwfgtd66cywQwIoA_Fl1xevq3ZYgRcPg09_wGNj7-53hM78RHPxCXbYyiVlhUyTC4eiPgYYgzmnejO-4PggdDqkaNfxDrrsHjZuR92EoDPOXsxvCDTvMYfPgEyR-1m00]--></g></svg>